# xmcd
#
# Track frame offsets: 
#        150
#        22787
#        40422
#        65862
#        85652
#        115685
#        138157
#        170025
#        190907
#        224900
#        244977
#        309830
#
# Disc length: 4403 seconds
#
# Revision: 4
# Processed by: cddbd v1.5.2PL0 Copyright (c) Steve Scherf et al.
# Submitted via: ExactAudioCopy v0.99pb3
#
DISCID=a911310c
DTITLE=Celtic Frost - Monotheist
DYEAR=2006
DGENRE=Metal
TTITLE0=Progeny
TTITLE1=Ground
TTITLE2=A Dying God Coming Into Human Flesh
TTITLE3=Drown In Ashes
TTITLE4=Os Abysmi Vel Daath
TTITLE5=Temple Of Depression
TTITLE6=Obscured
TTITLE7=Domain Of Decay
TTITLE8=Ain Elohim
TTITLE9=Totengott
TTITLE10=Synagoga Satanae
TTITLE11=Winter (Requiem, Chapter Three: Finale)
EXTD=
EXTT0=
EXTT1=
EXTT2=
EXTT3=
EXTT4=
EXTT5=
EXTT6=
EXTT7=
EXTT8=
EXTT9=
EXTT10=
EXTT11=
PLAYORDER=
